<mxfile host="app.diagrams.net" modified="2023-05-30T05:00:43.854Z" agent="Mozilla/5.0 (Windows NT 10.0; Win64; x64) AppleWebKit/537.36 (KHTML, like Gecko) Chrome/113.0.0.0 Safari/537.36" version="21.2.2" etag="clhFgEH1IqJsRKkba0Ni" type="github">
  <diagram name="Page-1" id="YZr_IaQKmOD4ak1izgbq">
    <mxGraphModel>
      <root>
        <mxCell id="0" />
        <mxCell id="1" parent="0" />
      </root>
    </mxGraphModel>
  </diagram>
</mxfile>
